<?xml version="1.0" encoding="utf-8"?>
<!-- Generator: Adobe Illustrator 19.0.0, SVG Export Plug-In . SVG Version: 6.00 Build 0)  -->
<svg version="1.1" id="Layer_1" xmlns="http://www.w3.org/2000/svg" xmlns:xlink="http://www.w3.org/1999/xlink" x="0px" y="0px"
	 viewBox="-285 408.9 24 24" style="enable-background:new -285 408.9 24 24;" xml:space="preserve">
<style type="text/css">
	.st0{fill:none;}
	.st1{fill:#333333;}
</style>
<path class="st0" d="M-570,817.8h24v24h-24V817.8z"/>
<path class="st1" d="M-266.6,417.1h-1.7c-0.4-0.7-1-1.4-1.7-1.8l0.9-0.9c0.4-0.4,0.4-1,0-1.3c-0.4-0.4-1-0.4-1.3,0l-1.4,1.4
	c-0.4-0.1-0.9-0.2-1.3-0.2s-0.9,0.1-1.3,0.2l-1.4-1.4c-0.4-0.4-1-0.4-1.3,0c-0.4,0.4-0.4,1,0,1.3l0.9,0.9c-0.7,0.5-1.3,1.1-1.7,1.8
	h-1.7c-0.5,0-0.9,0.4-0.9,0.9s0.4,0.9,0.9,0.9h1c0,0.3-0.1,0.6-0.1,0.9v0.9h-0.9c-0.5,0-0.9,0.4-0.9,0.9s0.4,0.9,0.9,0.9h0.9v0.9
	c0,0.3,0,0.6,0.1,0.9h-1c-0.5,0-0.9,0.4-0.9,0.9s0.4,0.9,0.9,0.9h1.7c1,1.7,2.8,2.8,4.9,2.8s3.9-1.1,4.9-2.8h1.7
	c0.5,0,0.9-0.4,0.9-0.9s-0.4-0.9-0.9-0.9h-1c0-0.3,0.1-0.6,0.1-0.9v-0.9h0.9c0.5,0,0.9-0.4,0.9-0.9s-0.4-0.9-0.9-0.9h-0.9v-0.9
	c0-0.3,0-0.6-0.1-0.9h1c0.5,0,0.9-0.4,0.9-0.9S-266.1,417.1-266.6,417.1z M-272.3,424.6h-1.9c-0.5,0-0.9-0.4-0.9-0.9
	s0.4-0.9,0.9-0.9h1.9c0.5,0,0.9,0.4,0.9,0.9S-271.7,424.6-272.3,424.6z M-272.3,420.9h-1.9c-0.5,0-0.9-0.4-0.9-0.9s0.4-0.9,0.9-0.9
	h1.9c0.5,0,0.9,0.4,0.9,0.9S-271.7,420.9-272.3,420.9z"/>
</svg>
